<mxfile host="app.diagrams.net" modified="2021-05-04T06:01:33.786Z" agent="5.0 (Windows NT 10.0; Win64; x64) AppleWebKit/537.36 (KHTML, like Gecko) Chrome/90.0.4430.93 Safari/537.36" etag="rsI0jIeiCh-RSJJj4hZM" version="14.5.3" type="github">
  <diagram id="C5RBs43oDa-KdzZeNtuy" name="Page-1">
    <mxGraphModel dx="2580" dy="682" grid="1" gridSize="10" guides="1" tooltips="1" connect="1" arrows="1" fold="1" page="1" pageScale="1" pageWidth="827" pageHeight="1169" math="0" shadow="0">
      <root>
        <mxCell id="WIyWlLk6GJQsqaUBKTNV-0" />
        <mxCell id="WIyWlLk6GJQsqaUBKTNV-1" parent="WIyWlLk6GJQsqaUBKTNV-0" />
        <mxCell id="zkfFHV4jXpPFQw0GAbJ--0" value="CHITITETDONHANG" style="swimlane;fontStyle=2;align=center;verticalAlign=top;childLayout=stackLayout;horizontal=1;startSize=26;horizontalStack=0;resizeParent=1;resizeLast=0;collapsible=1;marginBottom=0;rounded=0;shadow=0;strokeWidth=1;" parent="WIyWlLk6GJQsqaUBKTNV-1" vertex="1">
          <mxGeometry x="-10" y="461" width="130" height="192" as="geometry">
            <mxRectangle x="230" y="140" width="160" height="26" as="alternateBounds" />
          </mxGeometry>
        </mxCell>
        <mxCell id="zkfFHV4jXpPFQw0GAbJ--2" value="idctdh" style="text;align=left;verticalAlign=top;spacingLeft=4;spacingRight=4;overflow=hidden;rotatable=0;points=[[0,0.5],[1,0.5]];portConstraint=eastwest;rounded=0;shadow=0;html=0;" parent="zkfFHV4jXpPFQw0GAbJ--0" vertex="1">
          <mxGeometry y="26" width="130" height="26" as="geometry" />
        </mxCell>
        <mxCell id="zkfFHV4jXpPFQw0GAbJ--3" value="iddonhang" style="text;align=left;verticalAlign=top;spacingLeft=4;spacingRight=4;overflow=hidden;rotatable=0;points=[[0,0.5],[1,0.5]];portConstraint=eastwest;rounded=0;shadow=0;html=0;" parent="zkfFHV4jXpPFQw0GAbJ--0" vertex="1">
          <mxGeometry y="52" width="130" height="28" as="geometry" />
        </mxCell>
        <mxCell id="cmu8nAeUAbJEnEiby4zO-9" value="idsach" style="text;align=left;verticalAlign=top;spacingLeft=4;spacingRight=4;overflow=hidden;rotatable=0;points=[[0,0.5],[1,0.5]];portConstraint=eastwest;rounded=0;shadow=0;html=0;" vertex="1" parent="zkfFHV4jXpPFQw0GAbJ--0">
          <mxGeometry y="80" width="130" height="30" as="geometry" />
        </mxCell>
        <mxCell id="cmu8nAeUAbJEnEiby4zO-6" value="soluong" style="text;align=left;verticalAlign=top;spacingLeft=4;spacingRight=4;overflow=hidden;rotatable=0;points=[[0,0.5],[1,0.5]];portConstraint=eastwest;rounded=0;shadow=0;html=0;" vertex="1" parent="zkfFHV4jXpPFQw0GAbJ--0">
          <mxGeometry y="110" width="130" height="28" as="geometry" />
        </mxCell>
        <mxCell id="cmu8nAeUAbJEnEiby4zO-4" value="tien" style="text;align=left;verticalAlign=top;spacingLeft=4;spacingRight=4;overflow=hidden;rotatable=0;points=[[0,0.5],[1,0.5]];portConstraint=eastwest;rounded=0;shadow=0;html=0;" vertex="1" parent="zkfFHV4jXpPFQw0GAbJ--0">
          <mxGeometry y="138" width="130" height="28" as="geometry" />
        </mxCell>
        <mxCell id="cmu8nAeUAbJEnEiby4zO-11" value="idgiohang" style="text;align=left;verticalAlign=top;spacingLeft=4;spacingRight=4;overflow=hidden;rotatable=0;points=[[0,0.5],[1,0.5]];portConstraint=eastwest;" vertex="1" parent="zkfFHV4jXpPFQw0GAbJ--0">
          <mxGeometry y="166" width="130" height="24" as="geometry" />
        </mxCell>
        <mxCell id="zkfFHV4jXpPFQw0GAbJ--13" value=" KHACHHANG" style="swimlane;fontStyle=0;align=center;verticalAlign=top;childLayout=stackLayout;horizontal=1;startSize=26;horizontalStack=0;resizeParent=1;resizeLast=0;collapsible=1;marginBottom=0;rounded=0;shadow=0;strokeWidth=1;" parent="WIyWlLk6GJQsqaUBKTNV-1" vertex="1">
          <mxGeometry x="540" y="429" width="160" height="96" as="geometry">
            <mxRectangle x="330" y="360" width="170" height="26" as="alternateBounds" />
          </mxGeometry>
        </mxCell>
        <mxCell id="zkfFHV4jXpPFQw0GAbJ--14" value="idkhachhang" style="text;align=left;verticalAlign=top;spacingLeft=4;spacingRight=4;overflow=hidden;rotatable=0;points=[[0,0.5],[1,0.5]];portConstraint=eastwest;" parent="zkfFHV4jXpPFQw0GAbJ--13" vertex="1">
          <mxGeometry y="26" width="160" height="34" as="geometry" />
        </mxCell>
        <mxCell id="cmu8nAeUAbJEnEiby4zO-20" value="idtaikhoan" style="text;align=left;verticalAlign=top;spacingLeft=4;spacingRight=4;overflow=hidden;rotatable=0;points=[[0,0.5],[1,0.5]];portConstraint=eastwest;rounded=0;shadow=0;html=0;" vertex="1" parent="zkfFHV4jXpPFQw0GAbJ--13">
          <mxGeometry y="60" width="160" height="28" as="geometry" />
        </mxCell>
        <mxCell id="cmu8nAeUAbJEnEiby4zO-0" value="GIOHANG" style="swimlane;fontStyle=0;align=center;verticalAlign=top;childLayout=stackLayout;horizontal=1;startSize=26;horizontalStack=0;resizeParent=1;resizeLast=0;collapsible=1;marginBottom=0;rounded=0;shadow=0;strokeWidth=1;" vertex="1" parent="WIyWlLk6GJQsqaUBKTNV-1">
          <mxGeometry x="-200" y="610" width="130" height="60" as="geometry">
            <mxRectangle x="340" y="380" width="170" height="26" as="alternateBounds" />
          </mxGeometry>
        </mxCell>
        <mxCell id="cmu8nAeUAbJEnEiby4zO-1" value="idgiohang" style="text;align=left;verticalAlign=top;spacingLeft=4;spacingRight=4;overflow=hidden;rotatable=0;points=[[0,0.5],[1,0.5]];portConstraint=eastwest;" vertex="1" parent="cmu8nAeUAbJEnEiby4zO-0">
          <mxGeometry y="26" width="130" height="24" as="geometry" />
        </mxCell>
        <mxCell id="cmu8nAeUAbJEnEiby4zO-13" value=" BAIVIET" style="swimlane;fontStyle=2;align=center;verticalAlign=top;childLayout=stackLayout;horizontal=1;startSize=26;horizontalStack=0;resizeParent=1;resizeLast=0;collapsible=1;marginBottom=0;rounded=0;shadow=0;strokeWidth=1;" vertex="1" parent="WIyWlLk6GJQsqaUBKTNV-1">
          <mxGeometry x="414" y="419" width="100" height="166" as="geometry">
            <mxRectangle x="230" y="140" width="160" height="26" as="alternateBounds" />
          </mxGeometry>
        </mxCell>
        <mxCell id="cmu8nAeUAbJEnEiby4zO-14" value="idbaiviet" style="text;align=left;verticalAlign=top;spacingLeft=4;spacingRight=4;overflow=hidden;rotatable=0;points=[[0,0.5],[1,0.5]];portConstraint=eastwest;rounded=0;shadow=0;html=0;" vertex="1" parent="cmu8nAeUAbJEnEiby4zO-13">
          <mxGeometry y="26" width="100" height="26" as="geometry" />
        </mxCell>
        <mxCell id="cmu8nAeUAbJEnEiby4zO-15" value="idsach" style="text;align=left;verticalAlign=top;spacingLeft=4;spacingRight=4;overflow=hidden;rotatable=0;points=[[0,0.5],[1,0.5]];portConstraint=eastwest;rounded=0;shadow=0;html=0;" vertex="1" parent="cmu8nAeUAbJEnEiby4zO-13">
          <mxGeometry y="52" width="100" height="28" as="geometry" />
        </mxCell>
        <mxCell id="cmu8nAeUAbJEnEiby4zO-16" value="idloaisach" style="text;align=left;verticalAlign=top;spacingLeft=4;spacingRight=4;overflow=hidden;rotatable=0;points=[[0,0.5],[1,0.5]];portConstraint=eastwest;rounded=0;shadow=0;html=0;" vertex="1" parent="cmu8nAeUAbJEnEiby4zO-13">
          <mxGeometry y="80" width="100" height="30" as="geometry" />
        </mxCell>
        <mxCell id="cmu8nAeUAbJEnEiby4zO-17" value="baiviet" style="text;align=left;verticalAlign=top;spacingLeft=4;spacingRight=4;overflow=hidden;rotatable=0;points=[[0,0.5],[1,0.5]];portConstraint=eastwest;rounded=0;shadow=0;html=0;" vertex="1" parent="cmu8nAeUAbJEnEiby4zO-13">
          <mxGeometry y="110" width="100" height="28" as="geometry" />
        </mxCell>
        <mxCell id="cmu8nAeUAbJEnEiby4zO-18" value="idtaikhoan" style="text;align=left;verticalAlign=top;spacingLeft=4;spacingRight=4;overflow=hidden;rotatable=0;points=[[0,0.5],[1,0.5]];portConstraint=eastwest;rounded=0;shadow=0;html=0;" vertex="1" parent="cmu8nAeUAbJEnEiby4zO-13">
          <mxGeometry y="138" width="100" height="28" as="geometry" />
        </mxCell>
        <mxCell id="cmu8nAeUAbJEnEiby4zO-21" value="SHIPPER" style="swimlane;fontStyle=2;align=center;verticalAlign=top;childLayout=stackLayout;horizontal=1;startSize=25;horizontalStack=0;resizeParent=1;resizeLast=0;collapsible=1;marginBottom=0;rounded=0;shadow=0;strokeWidth=1;" vertex="1" parent="WIyWlLk6GJQsqaUBKTNV-1">
          <mxGeometry x="600" y="585" width="100" height="310" as="geometry">
            <mxRectangle x="230" y="140" width="160" height="26" as="alternateBounds" />
          </mxGeometry>
        </mxCell>
        <mxCell id="cmu8nAeUAbJEnEiby4zO-22" value="idshipper" style="text;align=left;verticalAlign=top;spacingLeft=4;spacingRight=4;overflow=hidden;rotatable=0;points=[[0,0.5],[1,0.5]];portConstraint=eastwest;rounded=0;shadow=0;html=0;" vertex="1" parent="cmu8nAeUAbJEnEiby4zO-21">
          <mxGeometry y="25" width="100" height="26" as="geometry" />
        </mxCell>
        <mxCell id="cmu8nAeUAbJEnEiby4zO-23" value="idtaikhoan" style="text;align=left;verticalAlign=top;spacingLeft=4;spacingRight=4;overflow=hidden;rotatable=0;points=[[0,0.5],[1,0.5]];portConstraint=eastwest;rounded=0;shadow=0;html=0;" vertex="1" parent="cmu8nAeUAbJEnEiby4zO-21">
          <mxGeometry y="51" width="100" height="28" as="geometry" />
        </mxCell>
        <mxCell id="cmu8nAeUAbJEnEiby4zO-24" value="tinhtrang" style="text;align=left;verticalAlign=top;spacingLeft=4;spacingRight=4;overflow=hidden;rotatable=0;points=[[0,0.5],[1,0.5]];portConstraint=eastwest;rounded=0;shadow=0;html=0;" vertex="1" parent="cmu8nAeUAbJEnEiby4zO-21">
          <mxGeometry y="79" width="100" height="30" as="geometry" />
        </mxCell>
        <mxCell id="cmu8nAeUAbJEnEiby4zO-25" value="loaixe" style="text;align=left;verticalAlign=top;spacingLeft=4;spacingRight=4;overflow=hidden;rotatable=0;points=[[0,0.5],[1,0.5]];portConstraint=eastwest;rounded=0;shadow=0;html=0;" vertex="1" parent="cmu8nAeUAbJEnEiby4zO-21">
          <mxGeometry y="109" width="100" height="28" as="geometry" />
        </mxCell>
        <mxCell id="cmu8nAeUAbJEnEiby4zO-26" value="sdt" style="text;align=left;verticalAlign=top;spacingLeft=4;spacingRight=4;overflow=hidden;rotatable=0;points=[[0,0.5],[1,0.5]];portConstraint=eastwest;rounded=0;shadow=0;html=0;" vertex="1" parent="cmu8nAeUAbJEnEiby4zO-21">
          <mxGeometry y="137" width="100" height="28" as="geometry" />
        </mxCell>
        <mxCell id="cmu8nAeUAbJEnEiby4zO-28" value="gmail" style="text;align=left;verticalAlign=top;spacingLeft=4;spacingRight=4;overflow=hidden;rotatable=0;points=[[0,0.5],[1,0.5]];portConstraint=eastwest;" vertex="1" parent="cmu8nAeUAbJEnEiby4zO-21">
          <mxGeometry y="165" width="100" height="26" as="geometry" />
        </mxCell>
        <mxCell id="cmu8nAeUAbJEnEiby4zO-29" value="diachi" style="text;align=left;verticalAlign=top;spacingLeft=4;spacingRight=4;overflow=hidden;rotatable=0;points=[[0,0.5],[1,0.5]];portConstraint=eastwest;" vertex="1" parent="cmu8nAeUAbJEnEiby4zO-21">
          <mxGeometry y="191" width="100" height="26" as="geometry" />
        </mxCell>
        <mxCell id="cmu8nAeUAbJEnEiby4zO-34" value="ngaysinh" style="text;align=left;verticalAlign=top;spacingLeft=4;spacingRight=4;overflow=hidden;rotatable=0;points=[[0,0.5],[1,0.5]];portConstraint=eastwest;" vertex="1" parent="cmu8nAeUAbJEnEiby4zO-21">
          <mxGeometry y="217" width="100" height="22" as="geometry" />
        </mxCell>
        <mxCell id="cmu8nAeUAbJEnEiby4zO-33" value="gioitinh" style="text;align=left;verticalAlign=top;spacingLeft=4;spacingRight=4;overflow=hidden;rotatable=0;points=[[0,0.5],[1,0.5]];portConstraint=eastwest;" vertex="1" parent="cmu8nAeUAbJEnEiby4zO-21">
          <mxGeometry y="239" width="100" height="26" as="geometry" />
        </mxCell>
        <mxCell id="cmu8nAeUAbJEnEiby4zO-32" value="tennguoidung" style="text;align=left;verticalAlign=top;spacingLeft=4;spacingRight=4;overflow=hidden;rotatable=0;points=[[0,0.5],[1,0.5]];portConstraint=eastwest;" vertex="1" parent="cmu8nAeUAbJEnEiby4zO-21">
          <mxGeometry y="265" width="100" height="26" as="geometry" />
        </mxCell>
        <mxCell id="cmu8nAeUAbJEnEiby4zO-38" value="DONHANG" style="swimlane;fontStyle=2;align=center;verticalAlign=top;childLayout=stackLayout;horizontal=1;startSize=26;horizontalStack=0;resizeParent=1;resizeLast=0;collapsible=1;marginBottom=0;rounded=0;shadow=0;strokeWidth=1;" vertex="1" parent="WIyWlLk6GJQsqaUBKTNV-1">
          <mxGeometry x="202" y="590" width="116" height="322" as="geometry">
            <mxRectangle x="230" y="140" width="160" height="26" as="alternateBounds" />
          </mxGeometry>
        </mxCell>
        <mxCell id="cmu8nAeUAbJEnEiby4zO-39" value="iddonhang" style="text;align=left;verticalAlign=top;spacingLeft=4;spacingRight=4;overflow=hidden;rotatable=0;points=[[0,0.5],[1,0.5]];portConstraint=eastwest;rounded=0;shadow=0;html=0;" vertex="1" parent="cmu8nAeUAbJEnEiby4zO-38">
          <mxGeometry y="26" width="116" height="26" as="geometry" />
        </mxCell>
        <mxCell id="cmu8nAeUAbJEnEiby4zO-40" value="iddonhang" style="text;align=left;verticalAlign=top;spacingLeft=4;spacingRight=4;overflow=hidden;rotatable=0;points=[[0,0.5],[1,0.5]];portConstraint=eastwest;rounded=0;shadow=0;html=0;" vertex="1" parent="cmu8nAeUAbJEnEiby4zO-38">
          <mxGeometry y="52" width="116" height="28" as="geometry" />
        </mxCell>
        <mxCell id="cmu8nAeUAbJEnEiby4zO-41" value="sdt" style="text;align=left;verticalAlign=top;spacingLeft=4;spacingRight=4;overflow=hidden;rotatable=0;points=[[0,0.5],[1,0.5]];portConstraint=eastwest;rounded=0;shadow=0;html=0;" vertex="1" parent="cmu8nAeUAbJEnEiby4zO-38">
          <mxGeometry y="80" width="116" height="30" as="geometry" />
        </mxCell>
        <mxCell id="cmu8nAeUAbJEnEiby4zO-42" value="tongtien" style="text;align=left;verticalAlign=top;spacingLeft=4;spacingRight=4;overflow=hidden;rotatable=0;points=[[0,0.5],[1,0.5]];portConstraint=eastwest;rounded=0;shadow=0;html=0;" vertex="1" parent="cmu8nAeUAbJEnEiby4zO-38">
          <mxGeometry y="110" width="116" height="28" as="geometry" />
        </mxCell>
        <mxCell id="cmu8nAeUAbJEnEiby4zO-43" value="tinhtrangthanhtoan" style="text;align=left;verticalAlign=top;spacingLeft=4;spacingRight=4;overflow=hidden;rotatable=0;points=[[0,0.5],[1,0.5]];portConstraint=eastwest;rounded=0;shadow=0;html=0;" vertex="1" parent="cmu8nAeUAbJEnEiby4zO-38">
          <mxGeometry y="138" width="116" height="28" as="geometry" />
        </mxCell>
        <mxCell id="cmu8nAeUAbJEnEiby4zO-44" value="tinhtranggiao" style="text;align=left;verticalAlign=top;spacingLeft=4;spacingRight=4;overflow=hidden;rotatable=0;points=[[0,0.5],[1,0.5]];portConstraint=eastwest;" vertex="1" parent="cmu8nAeUAbJEnEiby4zO-38">
          <mxGeometry y="166" width="116" height="26" as="geometry" />
        </mxCell>
        <mxCell id="cmu8nAeUAbJEnEiby4zO-45" value="duyetboitaikhoan" style="text;align=left;verticalAlign=top;spacingLeft=4;spacingRight=4;overflow=hidden;rotatable=0;points=[[0,0.5],[1,0.5]];portConstraint=eastwest;" vertex="1" parent="cmu8nAeUAbJEnEiby4zO-38">
          <mxGeometry y="192" width="116" height="26" as="geometry" />
        </mxCell>
        <mxCell id="cmu8nAeUAbJEnEiby4zO-46" value="cachthucgiaohang" style="text;align=left;verticalAlign=top;spacingLeft=4;spacingRight=4;overflow=hidden;rotatable=0;points=[[0,0.5],[1,0.5]];portConstraint=eastwest;" vertex="1" parent="cmu8nAeUAbJEnEiby4zO-38">
          <mxGeometry y="218" width="116" height="26" as="geometry" />
        </mxCell>
        <mxCell id="cmu8nAeUAbJEnEiby4zO-47" value="ngaydat" style="text;align=left;verticalAlign=top;spacingLeft=4;spacingRight=4;overflow=hidden;rotatable=0;points=[[0,0.5],[1,0.5]];portConstraint=eastwest;" vertex="1" parent="cmu8nAeUAbJEnEiby4zO-38">
          <mxGeometry y="244" width="116" height="26" as="geometry" />
        </mxCell>
        <mxCell id="cmu8nAeUAbJEnEiby4zO-48" value="ngaygiao" style="text;align=left;verticalAlign=top;spacingLeft=4;spacingRight=4;overflow=hidden;rotatable=0;points=[[0,0.5],[1,0.5]];portConstraint=eastwest;" vertex="1" parent="cmu8nAeUAbJEnEiby4zO-38">
          <mxGeometry y="270" width="116" height="26" as="geometry" />
        </mxCell>
        <mxCell id="cmu8nAeUAbJEnEiby4zO-49" value="soluong" style="text;align=left;verticalAlign=top;spacingLeft=4;spacingRight=4;overflow=hidden;rotatable=0;points=[[0,0.5],[1,0.5]];portConstraint=eastwest;" vertex="1" parent="cmu8nAeUAbJEnEiby4zO-38">
          <mxGeometry y="296" width="116" height="26" as="geometry" />
        </mxCell>
        <mxCell id="cmu8nAeUAbJEnEiby4zO-50" value="NHACUNGCAP" style="swimlane;fontStyle=2;align=center;verticalAlign=top;childLayout=stackLayout;horizontal=1;startSize=26;horizontalStack=0;resizeParent=1;resizeLast=0;collapsible=1;marginBottom=0;rounded=0;shadow=0;strokeWidth=1;" vertex="1" parent="WIyWlLk6GJQsqaUBKTNV-1">
          <mxGeometry x="-220" y="706" width="100" height="168" as="geometry">
            <mxRectangle x="230" y="140" width="160" height="26" as="alternateBounds" />
          </mxGeometry>
        </mxCell>
        <mxCell id="cmu8nAeUAbJEnEiby4zO-51" value="idnhacungcap" style="text;align=left;verticalAlign=top;spacingLeft=4;spacingRight=4;overflow=hidden;rotatable=0;points=[[0,0.5],[1,0.5]];portConstraint=eastwest;rounded=0;shadow=0;html=0;" vertex="1" parent="cmu8nAeUAbJEnEiby4zO-50">
          <mxGeometry y="26" width="100" height="26" as="geometry" />
        </mxCell>
        <mxCell id="cmu8nAeUAbJEnEiby4zO-52" value="tennhacungcap" style="text;align=left;verticalAlign=top;spacingLeft=4;spacingRight=4;overflow=hidden;rotatable=0;points=[[0,0.5],[1,0.5]];portConstraint=eastwest;rounded=0;shadow=0;html=0;" vertex="1" parent="cmu8nAeUAbJEnEiby4zO-50">
          <mxGeometry y="52" width="100" height="28" as="geometry" />
        </mxCell>
        <mxCell id="cmu8nAeUAbJEnEiby4zO-53" value="diachi" style="text;align=left;verticalAlign=top;spacingLeft=4;spacingRight=4;overflow=hidden;rotatable=0;points=[[0,0.5],[1,0.5]];portConstraint=eastwest;rounded=0;shadow=0;html=0;" vertex="1" parent="cmu8nAeUAbJEnEiby4zO-50">
          <mxGeometry y="80" width="100" height="30" as="geometry" />
        </mxCell>
        <mxCell id="cmu8nAeUAbJEnEiby4zO-54" value="sdt" style="text;align=left;verticalAlign=top;spacingLeft=4;spacingRight=4;overflow=hidden;rotatable=0;points=[[0,0.5],[1,0.5]];portConstraint=eastwest;rounded=0;shadow=0;html=0;" vertex="1" parent="cmu8nAeUAbJEnEiby4zO-50">
          <mxGeometry y="110" width="100" height="30" as="geometry" />
        </mxCell>
        <mxCell id="cmu8nAeUAbJEnEiby4zO-55" value="soluong" style="text;align=left;verticalAlign=top;spacingLeft=4;spacingRight=4;overflow=hidden;rotatable=0;points=[[0,0.5],[1,0.5]];portConstraint=eastwest;rounded=0;shadow=0;html=0;" vertex="1" parent="cmu8nAeUAbJEnEiby4zO-50">
          <mxGeometry y="140" width="100" height="28" as="geometry" />
        </mxCell>
        <mxCell id="cmu8nAeUAbJEnEiby4zO-56" value="NHANVIEN" style="swimlane;fontStyle=2;align=center;verticalAlign=top;childLayout=stackLayout;horizontal=1;startSize=26;horizontalStack=0;resizeParent=1;resizeLast=0;collapsible=1;marginBottom=0;rounded=0;shadow=0;strokeWidth=1;" vertex="1" parent="WIyWlLk6GJQsqaUBKTNV-1">
          <mxGeometry x="710" y="430" width="100" height="240" as="geometry">
            <mxRectangle x="230" y="140" width="160" height="26" as="alternateBounds" />
          </mxGeometry>
        </mxCell>
        <mxCell id="cmu8nAeUAbJEnEiby4zO-57" value="idnhanvien" style="text;align=left;verticalAlign=top;spacingLeft=4;spacingRight=4;overflow=hidden;rotatable=0;points=[[0,0.5],[1,0.5]];portConstraint=eastwest;rounded=0;shadow=0;html=0;" vertex="1" parent="cmu8nAeUAbJEnEiby4zO-56">
          <mxGeometry y="26" width="100" height="26" as="geometry" />
        </mxCell>
        <mxCell id="cmu8nAeUAbJEnEiby4zO-58" value="idtaikhoan" style="text;align=left;verticalAlign=top;spacingLeft=4;spacingRight=4;overflow=hidden;rotatable=0;points=[[0,0.5],[1,0.5]];portConstraint=eastwest;rounded=0;shadow=0;html=0;" vertex="1" parent="cmu8nAeUAbJEnEiby4zO-56">
          <mxGeometry y="52" width="100" height="28" as="geometry" />
        </mxCell>
        <mxCell id="cmu8nAeUAbJEnEiby4zO-59" value="chucvu" style="text;align=left;verticalAlign=top;spacingLeft=4;spacingRight=4;overflow=hidden;rotatable=0;points=[[0,0.5],[1,0.5]];portConstraint=eastwest;rounded=0;shadow=0;html=0;" vertex="1" parent="cmu8nAeUAbJEnEiby4zO-56">
          <mxGeometry y="80" width="100" height="30" as="geometry" />
        </mxCell>
        <mxCell id="cmu8nAeUAbJEnEiby4zO-60" value="gmail " style="text;align=left;verticalAlign=top;spacingLeft=4;spacingRight=4;overflow=hidden;rotatable=0;points=[[0,0.5],[1,0.5]];portConstraint=eastwest;rounded=0;shadow=0;html=0;" vertex="1" parent="cmu8nAeUAbJEnEiby4zO-56">
          <mxGeometry y="110" width="100" height="28" as="geometry" />
        </mxCell>
        <mxCell id="cmu8nAeUAbJEnEiby4zO-61" value="diachi" style="text;align=left;verticalAlign=top;spacingLeft=4;spacingRight=4;overflow=hidden;rotatable=0;points=[[0,0.5],[1,0.5]];portConstraint=eastwest;rounded=0;shadow=0;html=0;" vertex="1" parent="cmu8nAeUAbJEnEiby4zO-56">
          <mxGeometry y="138" width="100" height="22" as="geometry" />
        </mxCell>
        <mxCell id="cmu8nAeUAbJEnEiby4zO-64" value="ngaysinh" style="text;align=left;verticalAlign=top;spacingLeft=4;spacingRight=4;overflow=hidden;rotatable=0;points=[[0,0.5],[1,0.5]];portConstraint=eastwest;rounded=0;shadow=0;html=0;" vertex="1" parent="cmu8nAeUAbJEnEiby4zO-56">
          <mxGeometry y="160" width="100" height="22" as="geometry" />
        </mxCell>
        <mxCell id="cmu8nAeUAbJEnEiby4zO-63" value="gioitinh" style="text;align=left;verticalAlign=top;spacingLeft=4;spacingRight=4;overflow=hidden;rotatable=0;points=[[0,0.5],[1,0.5]];portConstraint=eastwest;rounded=0;shadow=0;html=0;" vertex="1" parent="cmu8nAeUAbJEnEiby4zO-56">
          <mxGeometry y="182" width="100" height="22" as="geometry" />
        </mxCell>
        <mxCell id="cmu8nAeUAbJEnEiby4zO-62" value="tennguoidung" style="text;align=left;verticalAlign=top;spacingLeft=4;spacingRight=4;overflow=hidden;rotatable=0;points=[[0,0.5],[1,0.5]];portConstraint=eastwest;rounded=0;shadow=0;html=0;" vertex="1" parent="cmu8nAeUAbJEnEiby4zO-56">
          <mxGeometry y="204" width="100" height="22" as="geometry" />
        </mxCell>
        <mxCell id="cmu8nAeUAbJEnEiby4zO-65" value="TAIKHOAN" style="swimlane;fontStyle=0;align=center;verticalAlign=top;childLayout=stackLayout;horizontal=1;startSize=26;horizontalStack=0;resizeParent=1;resizeLast=0;collapsible=1;marginBottom=0;rounded=0;shadow=0;strokeWidth=1;" vertex="1" parent="WIyWlLk6GJQsqaUBKTNV-1">
          <mxGeometry x="387" y="653" width="160" height="122" as="geometry">
            <mxRectangle x="330" y="360" width="170" height="26" as="alternateBounds" />
          </mxGeometry>
        </mxCell>
        <mxCell id="cmu8nAeUAbJEnEiby4zO-66" value="idtaikhoan" style="text;align=left;verticalAlign=top;spacingLeft=4;spacingRight=4;overflow=hidden;rotatable=0;points=[[0,0.5],[1,0.5]];portConstraint=eastwest;" vertex="1" parent="cmu8nAeUAbJEnEiby4zO-65">
          <mxGeometry y="26" width="160" height="34" as="geometry" />
        </mxCell>
        <mxCell id="cmu8nAeUAbJEnEiby4zO-67" value="Tentaikhoan" style="text;align=left;verticalAlign=top;spacingLeft=4;spacingRight=4;overflow=hidden;rotatable=0;points=[[0,0.5],[1,0.5]];portConstraint=eastwest;rounded=0;shadow=0;html=0;" vertex="1" parent="cmu8nAeUAbJEnEiby4zO-65">
          <mxGeometry y="60" width="160" height="28" as="geometry" />
        </mxCell>
        <mxCell id="cmu8nAeUAbJEnEiby4zO-68" value="matkhau" style="text;align=left;verticalAlign=top;spacingLeft=4;spacingRight=4;overflow=hidden;rotatable=0;points=[[0,0.5],[1,0.5]];portConstraint=eastwest;rounded=0;shadow=0;html=0;" vertex="1" parent="cmu8nAeUAbJEnEiby4zO-65">
          <mxGeometry y="88" width="160" height="28" as="geometry" />
        </mxCell>
        <mxCell id="cmu8nAeUAbJEnEiby4zO-69" value="IMG" style="swimlane;fontStyle=0;align=center;verticalAlign=top;childLayout=stackLayout;horizontal=1;startSize=26;horizontalStack=0;resizeParent=1;resizeLast=0;collapsible=1;marginBottom=0;rounded=0;shadow=0;strokeWidth=1;" vertex="1" parent="WIyWlLk6GJQsqaUBKTNV-1">
          <mxGeometry x="-180" y="405" width="70" height="120" as="geometry">
            <mxRectangle x="330" y="360" width="170" height="26" as="alternateBounds" />
          </mxGeometry>
        </mxCell>
        <mxCell id="cmu8nAeUAbJEnEiby4zO-70" value="idimg" style="text;align=left;verticalAlign=top;spacingLeft=4;spacingRight=4;overflow=hidden;rotatable=0;points=[[0,0.5],[1,0.5]];portConstraint=eastwest;" vertex="1" parent="cmu8nAeUAbJEnEiby4zO-69">
          <mxGeometry y="26" width="70" height="34" as="geometry" />
        </mxCell>
        <mxCell id="cmu8nAeUAbJEnEiby4zO-71" value="img" style="text;align=left;verticalAlign=top;spacingLeft=4;spacingRight=4;overflow=hidden;rotatable=0;points=[[0,0.5],[1,0.5]];portConstraint=eastwest;rounded=0;shadow=0;html=0;" vertex="1" parent="cmu8nAeUAbJEnEiby4zO-69">
          <mxGeometry y="60" width="70" height="28" as="geometry" />
        </mxCell>
        <mxCell id="cmu8nAeUAbJEnEiby4zO-72" value="idsach" style="text;align=left;verticalAlign=top;spacingLeft=4;spacingRight=4;overflow=hidden;rotatable=0;points=[[0,0.5],[1,0.5]];portConstraint=eastwest;rounded=0;shadow=0;html=0;" vertex="1" parent="cmu8nAeUAbJEnEiby4zO-69">
          <mxGeometry y="88" width="70" height="28" as="geometry" />
        </mxCell>
        <mxCell id="cmu8nAeUAbJEnEiby4zO-73" value="PHIEUNHAPSACH" style="swimlane;fontStyle=2;align=center;verticalAlign=top;childLayout=stackLayout;horizontal=1;startSize=26;horizontalStack=0;resizeParent=1;resizeLast=0;collapsible=1;marginBottom=0;rounded=0;shadow=0;strokeWidth=1;" vertex="1" parent="WIyWlLk6GJQsqaUBKTNV-1">
          <mxGeometry x="-10" y="680" width="110" height="220" as="geometry">
            <mxRectangle x="650" y="170" width="160" height="26" as="alternateBounds" />
          </mxGeometry>
        </mxCell>
        <mxCell id="cmu8nAeUAbJEnEiby4zO-74" value="idpns" style="text;align=left;verticalAlign=top;spacingLeft=4;spacingRight=4;overflow=hidden;rotatable=0;points=[[0,0.5],[1,0.5]];portConstraint=eastwest;rounded=0;shadow=0;html=0;" vertex="1" parent="cmu8nAeUAbJEnEiby4zO-73">
          <mxGeometry y="26" width="110" height="26" as="geometry" />
        </mxCell>
        <mxCell id="cmu8nAeUAbJEnEiby4zO-75" value="idtaikhoan" style="text;align=left;verticalAlign=top;spacingLeft=4;spacingRight=4;overflow=hidden;rotatable=0;points=[[0,0.5],[1,0.5]];portConstraint=eastwest;rounded=0;shadow=0;html=0;" vertex="1" parent="cmu8nAeUAbJEnEiby4zO-73">
          <mxGeometry y="52" width="110" height="28" as="geometry" />
        </mxCell>
        <mxCell id="cmu8nAeUAbJEnEiby4zO-76" value="idnhacungcap" style="text;align=left;verticalAlign=top;spacingLeft=4;spacingRight=4;overflow=hidden;rotatable=0;points=[[0,0.5],[1,0.5]];portConstraint=eastwest;rounded=0;shadow=0;html=0;" vertex="1" parent="cmu8nAeUAbJEnEiby4zO-73">
          <mxGeometry y="80" width="110" height="30" as="geometry" />
        </mxCell>
        <mxCell id="cmu8nAeUAbJEnEiby4zO-77" value="soluong" style="text;align=left;verticalAlign=top;spacingLeft=4;spacingRight=4;overflow=hidden;rotatable=0;points=[[0,0.5],[1,0.5]];portConstraint=eastwest;rounded=0;shadow=0;html=0;" vertex="1" parent="cmu8nAeUAbJEnEiby4zO-73">
          <mxGeometry y="110" width="110" height="28" as="geometry" />
        </mxCell>
        <mxCell id="cmu8nAeUAbJEnEiby4zO-78" value="tien" style="text;align=left;verticalAlign=top;spacingLeft=4;spacingRight=4;overflow=hidden;rotatable=0;points=[[0,0.5],[1,0.5]];portConstraint=eastwest;rounded=0;shadow=0;html=0;" vertex="1" parent="cmu8nAeUAbJEnEiby4zO-73">
          <mxGeometry y="138" width="110" height="28" as="geometry" />
        </mxCell>
        <mxCell id="cmu8nAeUAbJEnEiby4zO-79" value="ngaynhap" style="text;align=left;verticalAlign=top;spacingLeft=4;spacingRight=4;overflow=hidden;rotatable=0;points=[[0,0.5],[1,0.5]];portConstraint=eastwest;" vertex="1" parent="cmu8nAeUAbJEnEiby4zO-73">
          <mxGeometry y="166" width="110" height="26" as="geometry" />
        </mxCell>
        <mxCell id="cmu8nAeUAbJEnEiby4zO-82" value="idsach" style="text;align=left;verticalAlign=top;spacingLeft=4;spacingRight=4;overflow=hidden;rotatable=0;points=[[0,0.5],[1,0.5]];portConstraint=eastwest;" vertex="1" parent="cmu8nAeUAbJEnEiby4zO-73">
          <mxGeometry y="192" width="110" height="26" as="geometry" />
        </mxCell>
        <mxCell id="cmu8nAeUAbJEnEiby4zO-83" value="SACH" style="swimlane;fontStyle=2;align=center;verticalAlign=top;childLayout=stackLayout;horizontal=1;startSize=26;horizontalStack=0;resizeParent=1;resizeLast=0;collapsible=1;marginBottom=0;rounded=0;shadow=0;strokeWidth=1;" vertex="1" parent="WIyWlLk6GJQsqaUBKTNV-1">
          <mxGeometry x="250" y="315" width="110" height="270" as="geometry">
            <mxRectangle x="650" y="170" width="160" height="26" as="alternateBounds" />
          </mxGeometry>
        </mxCell>
        <mxCell id="cmu8nAeUAbJEnEiby4zO-84" value="idsach" style="text;align=left;verticalAlign=top;spacingLeft=4;spacingRight=4;overflow=hidden;rotatable=0;points=[[0,0.5],[1,0.5]];portConstraint=eastwest;rounded=0;shadow=0;html=0;" vertex="1" parent="cmu8nAeUAbJEnEiby4zO-83">
          <mxGeometry y="26" width="110" height="26" as="geometry" />
        </mxCell>
        <mxCell id="cmu8nAeUAbJEnEiby4zO-85" value="tensach" style="text;align=left;verticalAlign=top;spacingLeft=4;spacingRight=4;overflow=hidden;rotatable=0;points=[[0,0.5],[1,0.5]];portConstraint=eastwest;rounded=0;shadow=0;html=0;" vertex="1" parent="cmu8nAeUAbJEnEiby4zO-83">
          <mxGeometry y="52" width="110" height="28" as="geometry" />
        </mxCell>
        <mxCell id="cmu8nAeUAbJEnEiby4zO-86" value="soluong" style="text;align=left;verticalAlign=top;spacingLeft=4;spacingRight=4;overflow=hidden;rotatable=0;points=[[0,0.5],[1,0.5]];portConstraint=eastwest;rounded=0;shadow=0;html=0;" vertex="1" parent="cmu8nAeUAbJEnEiby4zO-83">
          <mxGeometry y="80" width="110" height="30" as="geometry" />
        </mxCell>
        <mxCell id="cmu8nAeUAbJEnEiby4zO-87" value="gia" style="text;align=left;verticalAlign=top;spacingLeft=4;spacingRight=4;overflow=hidden;rotatable=0;points=[[0,0.5],[1,0.5]];portConstraint=eastwest;rounded=0;shadow=0;html=0;" vertex="1" parent="cmu8nAeUAbJEnEiby4zO-83">
          <mxGeometry y="110" width="110" height="28" as="geometry" />
        </mxCell>
        <mxCell id="cmu8nAeUAbJEnEiby4zO-88" value="tennxb" style="text;align=left;verticalAlign=top;spacingLeft=4;spacingRight=4;overflow=hidden;rotatable=0;points=[[0,0.5],[1,0.5]];portConstraint=eastwest;rounded=0;shadow=0;html=0;" vertex="1" parent="cmu8nAeUAbJEnEiby4zO-83">
          <mxGeometry y="138" width="110" height="28" as="geometry" />
        </mxCell>
        <mxCell id="cmu8nAeUAbJEnEiby4zO-89" value="tentacgia" style="text;align=left;verticalAlign=top;spacingLeft=4;spacingRight=4;overflow=hidden;rotatable=0;points=[[0,0.5],[1,0.5]];portConstraint=eastwest;" vertex="1" parent="cmu8nAeUAbJEnEiby4zO-83">
          <mxGeometry y="166" width="110" height="26" as="geometry" />
        </mxCell>
        <mxCell id="cmu8nAeUAbJEnEiby4zO-90" value="sotrang " style="text;align=left;verticalAlign=top;spacingLeft=4;spacingRight=4;overflow=hidden;rotatable=0;points=[[0,0.5],[1,0.5]];portConstraint=eastwest;" vertex="1" parent="cmu8nAeUAbJEnEiby4zO-83">
          <mxGeometry y="192" width="110" height="26" as="geometry" />
        </mxCell>
        <mxCell id="cmu8nAeUAbJEnEiby4zO-91" value="ngayxuatban" style="text;align=left;verticalAlign=top;spacingLeft=4;spacingRight=4;overflow=hidden;rotatable=0;points=[[0,0.5],[1,0.5]];portConstraint=eastwest;" vertex="1" parent="cmu8nAeUAbJEnEiby4zO-83">
          <mxGeometry y="218" width="110" height="26" as="geometry" />
        </mxCell>
        <mxCell id="cmu8nAeUAbJEnEiby4zO-94" value="idloai" style="text;align=left;verticalAlign=top;spacingLeft=4;spacingRight=4;overflow=hidden;rotatable=0;points=[[0,0.5],[1,0.5]];portConstraint=eastwest;" vertex="1" parent="cmu8nAeUAbJEnEiby4zO-83">
          <mxGeometry y="244" width="110" height="26" as="geometry" />
        </mxCell>
        <mxCell id="cmu8nAeUAbJEnEiby4zO-95" value="PHANLOAISACH" style="swimlane;fontStyle=0;align=center;verticalAlign=top;childLayout=stackLayout;horizontal=1;startSize=26;horizontalStack=0;resizeParent=1;resizeLast=0;collapsible=1;marginBottom=0;rounded=0;shadow=0;strokeWidth=1;" vertex="1" parent="WIyWlLk6GJQsqaUBKTNV-1">
          <mxGeometry x="444" y="285" width="106" height="120" as="geometry">
            <mxRectangle x="330" y="360" width="170" height="26" as="alternateBounds" />
          </mxGeometry>
        </mxCell>
        <mxCell id="cmu8nAeUAbJEnEiby4zO-96" value="idloaisach" style="text;align=left;verticalAlign=top;spacingLeft=4;spacingRight=4;overflow=hidden;rotatable=0;points=[[0,0.5],[1,0.5]];portConstraint=eastwest;" vertex="1" parent="cmu8nAeUAbJEnEiby4zO-95">
          <mxGeometry y="26" width="106" height="34" as="geometry" />
        </mxCell>
        <mxCell id="cmu8nAeUAbJEnEiby4zO-97" value="loai" style="text;align=left;verticalAlign=top;spacingLeft=4;spacingRight=4;overflow=hidden;rotatable=0;points=[[0,0.5],[1,0.5]];portConstraint=eastwest;rounded=0;shadow=0;html=0;" vertex="1" parent="cmu8nAeUAbJEnEiby4zO-95">
          <mxGeometry y="60" width="106" height="28" as="geometry" />
        </mxCell>
        <mxCell id="cmu8nAeUAbJEnEiby4zO-98" value="soluong" style="text;align=left;verticalAlign=top;spacingLeft=4;spacingRight=4;overflow=hidden;rotatable=0;points=[[0,0.5],[1,0.5]];portConstraint=eastwest;rounded=0;shadow=0;html=0;" vertex="1" parent="cmu8nAeUAbJEnEiby4zO-95">
          <mxGeometry y="88" width="106" height="28" as="geometry" />
        </mxCell>
        <mxCell id="cmu8nAeUAbJEnEiby4zO-109" value="" style="endArrow=none;html=1;entryX=-0.012;entryY=-0.059;entryDx=0;entryDy=0;entryPerimeter=0;exitX=1.026;exitY=-0.185;exitDx=0;exitDy=0;exitPerimeter=0;" edge="1" parent="WIyWlLk6GJQsqaUBKTNV-1" source="cmu8nAeUAbJEnEiby4zO-147" target="cmu8nAeUAbJEnEiby4zO-89">
          <mxGeometry width="50" height="50" relative="1" as="geometry">
            <mxPoint x="-90" y="800" as="sourcePoint" />
            <mxPoint x="270" y="490" as="targetPoint" />
            <Array as="points" />
          </mxGeometry>
        </mxCell>
        <mxCell id="cmu8nAeUAbJEnEiby4zO-110" value="" style="endArrow=none;html=1;entryX=1;entryY=0.5;entryDx=0;entryDy=0;exitX=0;exitY=0.5;exitDx=0;exitDy=0;" edge="1" parent="WIyWlLk6GJQsqaUBKTNV-1" source="cmu8nAeUAbJEnEiby4zO-75" target="cmu8nAeUAbJEnEiby4zO-51">
          <mxGeometry width="50" height="50" relative="1" as="geometry">
            <mxPoint x="380" y="620" as="sourcePoint" />
            <mxPoint x="430" y="570" as="targetPoint" />
          </mxGeometry>
        </mxCell>
        <mxCell id="cmu8nAeUAbJEnEiby4zO-111" value="" style="endArrow=none;html=1;exitX=1;exitY=0.5;exitDx=0;exitDy=0;entryX=0.005;entryY=1.052;entryDx=0;entryDy=0;entryPerimeter=0;" edge="1" parent="WIyWlLk6GJQsqaUBKTNV-1" source="cmu8nAeUAbJEnEiby4zO-70" target="cmu8nAeUAbJEnEiby4zO-84">
          <mxGeometry width="50" height="50" relative="1" as="geometry">
            <mxPoint x="360" y="650" as="sourcePoint" />
            <mxPoint x="280" y="350" as="targetPoint" />
            <Array as="points">
              <mxPoint x="120" y="400" />
            </Array>
          </mxGeometry>
        </mxCell>
        <mxCell id="cmu8nAeUAbJEnEiby4zO-112" value="" style="endArrow=none;html=1;exitX=1;exitY=0.5;exitDx=0;exitDy=0;entryX=0;entryY=0.5;entryDx=0;entryDy=0;" edge="1" parent="WIyWlLk6GJQsqaUBKTNV-1" source="cmu8nAeUAbJEnEiby4zO-9" target="cmu8nAeUAbJEnEiby4zO-87">
          <mxGeometry width="50" height="50" relative="1" as="geometry">
            <mxPoint x="360" y="650" as="sourcePoint" />
            <mxPoint x="276" y="445" as="targetPoint" />
          </mxGeometry>
        </mxCell>
        <mxCell id="cmu8nAeUAbJEnEiby4zO-113" value="" style="endArrow=none;html=1;entryX=0;entryY=0.5;entryDx=0;entryDy=0;exitX=1;exitY=0.5;exitDx=0;exitDy=0;" edge="1" parent="WIyWlLk6GJQsqaUBKTNV-1" source="cmu8nAeUAbJEnEiby4zO-86" target="cmu8nAeUAbJEnEiby4zO-16">
          <mxGeometry width="50" height="50" relative="1" as="geometry">
            <mxPoint x="390" y="370" as="sourcePoint" />
            <mxPoint x="410" y="340" as="targetPoint" />
          </mxGeometry>
        </mxCell>
        <mxCell id="cmu8nAeUAbJEnEiby4zO-114" value="" style="endArrow=none;html=1;entryX=0;entryY=0.5;entryDx=0;entryDy=0;exitX=0.399;exitY=0.002;exitDx=0;exitDy=0;exitPerimeter=0;" edge="1" parent="WIyWlLk6GJQsqaUBKTNV-1" source="cmu8nAeUAbJEnEiby4zO-83" target="cmu8nAeUAbJEnEiby4zO-96">
          <mxGeometry width="50" height="50" relative="1" as="geometry">
            <mxPoint x="340" y="310" as="sourcePoint" />
            <mxPoint x="410" y="340" as="targetPoint" />
          </mxGeometry>
        </mxCell>
        <mxCell id="cmu8nAeUAbJEnEiby4zO-115" value="" style="endArrow=none;html=1;exitX=0;exitY=0.5;exitDx=0;exitDy=0;entryX=0;entryY=0.5;entryDx=0;entryDy=0;" edge="1" parent="WIyWlLk6GJQsqaUBKTNV-1" source="cmu8nAeUAbJEnEiby4zO-98" target="cmu8nAeUAbJEnEiby4zO-15">
          <mxGeometry width="50" height="50" relative="1" as="geometry">
            <mxPoint x="360" y="390" as="sourcePoint" />
            <mxPoint x="410" y="340" as="targetPoint" />
            <Array as="points">
              <mxPoint x="370" y="400" />
            </Array>
          </mxGeometry>
        </mxCell>
        <mxCell id="cmu8nAeUAbJEnEiby4zO-116" value="" style="endArrow=none;html=1;entryX=0;entryY=0.5;entryDx=0;entryDy=0;" edge="1" parent="WIyWlLk6GJQsqaUBKTNV-1" source="cmu8nAeUAbJEnEiby4zO-38" target="cmu8nAeUAbJEnEiby4zO-67">
          <mxGeometry width="50" height="50" relative="1" as="geometry">
            <mxPoint x="360" y="390" as="sourcePoint" />
            <mxPoint x="410" y="340" as="targetPoint" />
          </mxGeometry>
        </mxCell>
        <mxCell id="cmu8nAeUAbJEnEiby4zO-117" value="" style="endArrow=none;html=1;entryX=0;entryY=0.5;entryDx=0;entryDy=0;exitX=1;exitY=0.5;exitDx=0;exitDy=0;" edge="1" parent="WIyWlLk6GJQsqaUBKTNV-1" source="cmu8nAeUAbJEnEiby4zO-67" target="cmu8nAeUAbJEnEiby4zO-23">
          <mxGeometry width="50" height="50" relative="1" as="geometry">
            <mxPoint x="360" y="390" as="sourcePoint" />
            <mxPoint x="410" y="340" as="targetPoint" />
          </mxGeometry>
        </mxCell>
        <mxCell id="cmu8nAeUAbJEnEiby4zO-118" value="" style="endArrow=none;html=1;entryX=0;entryY=0.5;entryDx=0;entryDy=0;exitX=1.037;exitY=0.069;exitDx=0;exitDy=0;exitPerimeter=0;" edge="1" parent="WIyWlLk6GJQsqaUBKTNV-1" source="cmu8nAeUAbJEnEiby4zO-65" target="cmu8nAeUAbJEnEiby4zO-59">
          <mxGeometry width="50" height="50" relative="1" as="geometry">
            <mxPoint x="360" y="390" as="sourcePoint" />
            <mxPoint x="410" y="340" as="targetPoint" />
            <Array as="points">
              <mxPoint x="580" y="570" />
            </Array>
          </mxGeometry>
        </mxCell>
        <mxCell id="cmu8nAeUAbJEnEiby4zO-119" value="" style="endArrow=none;html=1;entryX=0;entryY=0.5;entryDx=0;entryDy=0;exitX=0.75;exitY=0;exitDx=0;exitDy=0;" edge="1" parent="WIyWlLk6GJQsqaUBKTNV-1" source="cmu8nAeUAbJEnEiby4zO-65" target="zkfFHV4jXpPFQw0GAbJ--14">
          <mxGeometry width="50" height="50" relative="1" as="geometry">
            <mxPoint x="360" y="390" as="sourcePoint" />
            <mxPoint x="410" y="340" as="targetPoint" />
          </mxGeometry>
        </mxCell>
        <mxCell id="cmu8nAeUAbJEnEiby4zO-122" value="" style="endArrow=none;html=1;entryX=0.474;entryY=1.055;entryDx=0;entryDy=0;entryPerimeter=0;exitX=0.563;exitY=-0.025;exitDx=0;exitDy=0;exitPerimeter=0;" edge="1" parent="WIyWlLk6GJQsqaUBKTNV-1" source="cmu8nAeUAbJEnEiby4zO-65" target="cmu8nAeUAbJEnEiby4zO-18">
          <mxGeometry width="50" height="50" relative="1" as="geometry">
            <mxPoint x="360" y="610" as="sourcePoint" />
            <mxPoint x="410" y="560" as="targetPoint" />
          </mxGeometry>
        </mxCell>
        <mxCell id="cmu8nAeUAbJEnEiby4zO-123" value="" style="endArrow=none;html=1;exitX=1;exitY=0.5;exitDx=0;exitDy=0;entryX=0;entryY=0.5;entryDx=0;entryDy=0;" edge="1" parent="WIyWlLk6GJQsqaUBKTNV-1" source="cmu8nAeUAbJEnEiby4zO-1" target="zkfFHV4jXpPFQw0GAbJ--2">
          <mxGeometry width="50" height="50" relative="1" as="geometry">
            <mxPoint x="360" y="600" as="sourcePoint" />
            <mxPoint x="410" y="550" as="targetPoint" />
          </mxGeometry>
        </mxCell>
        <mxCell id="cmu8nAeUAbJEnEiby4zO-124" value="" style="endArrow=none;html=1;exitX=1;exitY=0.5;exitDx=0;exitDy=0;entryX=0;entryY=0.5;entryDx=0;entryDy=0;" edge="1" parent="WIyWlLk6GJQsqaUBKTNV-1" source="cmu8nAeUAbJEnEiby4zO-6" target="cmu8nAeUAbJEnEiby4zO-40">
          <mxGeometry width="50" height="50" relative="1" as="geometry">
            <mxPoint x="360" y="600" as="sourcePoint" />
            <mxPoint x="410" y="550" as="targetPoint" />
          </mxGeometry>
        </mxCell>
        <mxCell id="cmu8nAeUAbJEnEiby4zO-129" value="1..*" style="text;html=1;strokeColor=none;fillColor=none;align=center;verticalAlign=middle;whiteSpace=wrap;rounded=0;" vertex="1" parent="WIyWlLk6GJQsqaUBKTNV-1">
          <mxGeometry x="380" y="430" width="40" height="20" as="geometry" />
        </mxCell>
        <mxCell id="cmu8nAeUAbJEnEiby4zO-130" value="1..*" style="text;html=1;strokeColor=none;fillColor=none;align=center;verticalAlign=middle;whiteSpace=wrap;rounded=0;" vertex="1" parent="WIyWlLk6GJQsqaUBKTNV-1">
          <mxGeometry x="-110" y="419" width="40" height="20" as="geometry" />
        </mxCell>
        <mxCell id="cmu8nAeUAbJEnEiby4zO-131" value="1..*" style="text;html=1;strokeColor=none;fillColor=none;align=center;verticalAlign=middle;whiteSpace=wrap;rounded=0;" vertex="1" parent="WIyWlLk6GJQsqaUBKTNV-1">
          <mxGeometry x="-50" y="501" width="40" height="20" as="geometry" />
        </mxCell>
        <mxCell id="cmu8nAeUAbJEnEiby4zO-132" value="1..*" style="text;html=1;strokeColor=none;fillColor=none;align=center;verticalAlign=middle;whiteSpace=wrap;rounded=0;" vertex="1" parent="WIyWlLk6GJQsqaUBKTNV-1">
          <mxGeometry x="120" y="565" width="40" height="20" as="geometry" />
        </mxCell>
        <mxCell id="cmu8nAeUAbJEnEiby4zO-133" value="1..*" style="text;html=1;strokeColor=none;fillColor=none;align=center;verticalAlign=middle;whiteSpace=wrap;rounded=0;" vertex="1" parent="WIyWlLk6GJQsqaUBKTNV-1">
          <mxGeometry x="120" y="521" width="40" height="20" as="geometry" />
        </mxCell>
        <mxCell id="cmu8nAeUAbJEnEiby4zO-135" value="" style="endArrow=none;html=1;exitX=1;exitY=0.5;exitDx=0;exitDy=0;entryX=0;entryY=0.5;entryDx=0;entryDy=0;" edge="1" parent="WIyWlLk6GJQsqaUBKTNV-1" source="cmu8nAeUAbJEnEiby4zO-9" target="cmu8nAeUAbJEnEiby4zO-133">
          <mxGeometry width="50" height="50" relative="1" as="geometry">
            <mxPoint x="120" y="556" as="sourcePoint" />
            <mxPoint x="248" y="439" as="targetPoint" />
          </mxGeometry>
        </mxCell>
        <mxCell id="cmu8nAeUAbJEnEiby4zO-144" value="1..*" style="text;html=1;strokeColor=none;fillColor=none;align=center;verticalAlign=middle;whiteSpace=wrap;rounded=0;" vertex="1" parent="WIyWlLk6GJQsqaUBKTNV-1">
          <mxGeometry x="420" y="585" width="40" height="20" as="geometry" />
        </mxCell>
        <mxCell id="cmu8nAeUAbJEnEiby4zO-146" value="1..*" style="text;html=1;strokeColor=none;fillColor=none;align=center;verticalAlign=middle;whiteSpace=wrap;rounded=0;" vertex="1" parent="WIyWlLk6GJQsqaUBKTNV-1">
          <mxGeometry x="318" y="725" width="40" height="20" as="geometry" />
        </mxCell>
        <mxCell id="cmu8nAeUAbJEnEiby4zO-148" value="1..*" style="text;html=1;strokeColor=none;fillColor=none;align=center;verticalAlign=middle;whiteSpace=wrap;rounded=0;" vertex="1" parent="WIyWlLk6GJQsqaUBKTNV-1">
          <mxGeometry x="-40" y="725" width="40" height="20" as="geometry" />
        </mxCell>
        <mxCell id="cmu8nAeUAbJEnEiby4zO-149" value="" style="endArrow=none;html=1;entryX=1;entryY=0.5;entryDx=0;entryDy=0;" edge="1" parent="WIyWlLk6GJQsqaUBKTNV-1" source="cmu8nAeUAbJEnEiby4zO-75" target="cmu8nAeUAbJEnEiby4zO-148">
          <mxGeometry width="50" height="50" relative="1" as="geometry">
            <mxPoint x="-10" y="745.4761904761904" as="sourcePoint" />
            <mxPoint x="-60" y="744.9999999999998" as="targetPoint" />
          </mxGeometry>
        </mxCell>
        <mxCell id="cmu8nAeUAbJEnEiby4zO-153" value="1" style="text;html=1;strokeColor=none;fillColor=none;align=center;verticalAlign=middle;whiteSpace=wrap;rounded=0;" vertex="1" parent="WIyWlLk6GJQsqaUBKTNV-1">
          <mxGeometry x="540" y="700" width="40" height="20" as="geometry" />
        </mxCell>
        <mxCell id="cmu8nAeUAbJEnEiby4zO-154" value="1" style="text;html=1;strokeColor=none;fillColor=none;align=center;verticalAlign=middle;whiteSpace=wrap;rounded=0;" vertex="1" parent="WIyWlLk6GJQsqaUBKTNV-1">
          <mxGeometry x="530" y="633" width="40" height="20" as="geometry" />
        </mxCell>
        <mxCell id="cmu8nAeUAbJEnEiby4zO-155" value="1" style="text;html=1;strokeColor=none;fillColor=none;align=center;verticalAlign=middle;whiteSpace=wrap;rounded=0;" vertex="1" parent="WIyWlLk6GJQsqaUBKTNV-1">
          <mxGeometry x="500" y="630" width="40" height="20" as="geometry" />
        </mxCell>
        <mxCell id="cmu8nAeUAbJEnEiby4zO-156" value="1" style="text;html=1;strokeColor=none;fillColor=none;align=center;verticalAlign=middle;whiteSpace=wrap;rounded=0;" vertex="1" parent="WIyWlLk6GJQsqaUBKTNV-1">
          <mxGeometry x="444" y="633" width="40" height="20" as="geometry" />
        </mxCell>
        <mxCell id="cmu8nAeUAbJEnEiby4zO-157" value="1" style="text;html=1;strokeColor=none;fillColor=none;align=center;verticalAlign=middle;whiteSpace=wrap;rounded=0;" vertex="1" parent="WIyWlLk6GJQsqaUBKTNV-1">
          <mxGeometry x="358" y="706" width="40" height="20" as="geometry" />
        </mxCell>
        <mxCell id="cmu8nAeUAbJEnEiby4zO-158" value="1" style="text;html=1;strokeColor=none;fillColor=none;align=center;verticalAlign=middle;whiteSpace=wrap;rounded=0;" vertex="1" parent="WIyWlLk6GJQsqaUBKTNV-1">
          <mxGeometry x="160" y="660" width="40" height="20" as="geometry" />
        </mxCell>
        <mxCell id="cmu8nAeUAbJEnEiby4zO-159" value="1" style="text;html=1;strokeColor=none;fillColor=none;align=center;verticalAlign=middle;whiteSpace=wrap;rounded=0;" vertex="1" parent="WIyWlLk6GJQsqaUBKTNV-1">
          <mxGeometry x="90" y="720" width="40" height="20" as="geometry" />
        </mxCell>
        <mxCell id="cmu8nAeUAbJEnEiby4zO-160" value="1" style="text;html=1;strokeColor=none;fillColor=none;align=center;verticalAlign=middle;whiteSpace=wrap;rounded=0;" vertex="1" parent="WIyWlLk6GJQsqaUBKTNV-1">
          <mxGeometry x="208" y="420" width="40" height="20" as="geometry" />
        </mxCell>
        <mxCell id="cmu8nAeUAbJEnEiby4zO-161" value="1" style="text;html=1;strokeColor=none;fillColor=none;align=center;verticalAlign=middle;whiteSpace=wrap;rounded=0;" vertex="1" parent="WIyWlLk6GJQsqaUBKTNV-1">
          <mxGeometry x="-80" y="633" width="40" height="20" as="geometry" />
        </mxCell>
        <mxCell id="cmu8nAeUAbJEnEiby4zO-147" value="1..*" style="text;html=1;strokeColor=none;fillColor=none;align=center;verticalAlign=middle;whiteSpace=wrap;rounded=0;" vertex="1" parent="WIyWlLk6GJQsqaUBKTNV-1">
          <mxGeometry x="208" y="487" width="40" height="20" as="geometry" />
        </mxCell>
        <mxCell id="cmu8nAeUAbJEnEiby4zO-164" value="" style="endArrow=none;html=1;entryX=1;entryY=1;entryDx=0;entryDy=0;exitX=1.026;exitY=-0.185;exitDx=0;exitDy=0;exitPerimeter=0;" edge="1" parent="WIyWlLk6GJQsqaUBKTNV-1" source="cmu8nAeUAbJEnEiby4zO-75" target="cmu8nAeUAbJEnEiby4zO-147">
          <mxGeometry width="50" height="50" relative="1" as="geometry">
            <mxPoint x="102.85999999999967" y="726.8199999999999" as="sourcePoint" />
            <mxPoint x="246.6800000000003" y="479.4659999999999" as="targetPoint" />
            <Array as="points">
              <mxPoint x="130" y="670" />
              <mxPoint x="160" y="570" />
            </Array>
          </mxGeometry>
        </mxCell>
        <mxCell id="cmu8nAeUAbJEnEiby4zO-172" value="1" style="text;html=1;strokeColor=none;fillColor=none;align=center;verticalAlign=middle;whiteSpace=wrap;rounded=0;" vertex="1" parent="WIyWlLk6GJQsqaUBKTNV-1">
          <mxGeometry x="210" y="350" width="40" height="20" as="geometry" />
        </mxCell>
        <mxCell id="cmu8nAeUAbJEnEiby4zO-173" value="1" style="text;html=1;strokeColor=none;fillColor=none;align=center;verticalAlign=middle;whiteSpace=wrap;rounded=0;" vertex="1" parent="WIyWlLk6GJQsqaUBKTNV-1">
          <mxGeometry x="347" y="399" width="40" height="20" as="geometry" />
        </mxCell>
        <mxCell id="cmu8nAeUAbJEnEiby4zO-174" value="1" style="text;html=1;strokeColor=none;fillColor=none;align=center;verticalAlign=middle;whiteSpace=wrap;rounded=0;" vertex="1" parent="WIyWlLk6GJQsqaUBKTNV-1">
          <mxGeometry x="380" y="507" width="40" height="20" as="geometry" />
        </mxCell>
        <mxCell id="cmu8nAeUAbJEnEiby4zO-175" value="1" style="text;html=1;strokeColor=none;fillColor=none;align=center;verticalAlign=middle;whiteSpace=wrap;rounded=0;" vertex="1" parent="WIyWlLk6GJQsqaUBKTNV-1">
          <mxGeometry x="650" y="540" width="40" height="20" as="geometry" />
        </mxCell>
        <mxCell id="cmu8nAeUAbJEnEiby4zO-177" value="1" style="text;html=1;strokeColor=none;fillColor=none;align=center;verticalAlign=middle;whiteSpace=wrap;rounded=0;" vertex="1" parent="WIyWlLk6GJQsqaUBKTNV-1">
          <mxGeometry x="570" y="686" width="40" height="20" as="geometry" />
        </mxCell>
        <mxCell id="cmu8nAeUAbJEnEiby4zO-178" value="1" style="text;html=1;strokeColor=none;fillColor=none;align=center;verticalAlign=middle;whiteSpace=wrap;rounded=0;" vertex="1" parent="WIyWlLk6GJQsqaUBKTNV-1">
          <mxGeometry x="514" y="467" width="40" height="20" as="geometry" />
        </mxCell>
        <mxCell id="cmu8nAeUAbJEnEiby4zO-179" value="1" style="text;html=1;strokeColor=none;fillColor=none;align=center;verticalAlign=middle;whiteSpace=wrap;rounded=0;" vertex="1" parent="WIyWlLk6GJQsqaUBKTNV-1">
          <mxGeometry x="414" y="370" width="40" height="20" as="geometry" />
        </mxCell>
        <mxCell id="cmu8nAeUAbJEnEiby4zO-180" value="1" style="text;html=1;strokeColor=none;fillColor=none;align=center;verticalAlign=middle;whiteSpace=wrap;rounded=0;" vertex="1" parent="WIyWlLk6GJQsqaUBKTNV-1">
          <mxGeometry x="404" y="300" width="40" height="20" as="geometry" />
        </mxCell>
        <mxCell id="cmu8nAeUAbJEnEiby4zO-182" value="1..*" style="text;html=1;strokeColor=none;fillColor=none;align=center;verticalAlign=middle;whiteSpace=wrap;rounded=0;" vertex="1" parent="WIyWlLk6GJQsqaUBKTNV-1">
          <mxGeometry x="290" y="295" width="40" height="20" as="geometry" />
        </mxCell>
        <mxCell id="cmu8nAeUAbJEnEiby4zO-183" value="1" style="text;html=1;strokeColor=none;fillColor=none;align=center;verticalAlign=middle;whiteSpace=wrap;rounded=0;" vertex="1" parent="WIyWlLk6GJQsqaUBKTNV-1">
          <mxGeometry x="-120" y="725" width="40" height="20" as="geometry" />
        </mxCell>
      </root>
    </mxGraphModel>
  </diagram>
</mxfile>
